# xmcd
#
# Track frame offsets:
#   150
#   14431
#   27197
#   44105
#   55608
#   70719
#   88324
#   102829
#   114992
#   128502
#   142272
#   156448
#   168615
#   184952
#   195253
#   209010
#
# Disc length: 3007 seconds
#
# Revision: 0
# Processed by: cddbd v1.5.2PL0 Copyright (c) Steve Scherf et al.
# Submitted via: uFREEDB ActiveX Control 1.5
#
DISCID=e80bbd10
DTITLE=Marcello Teodoro - Topa Tudo
DYEAR=2012
DGENRE=UnClassifiable
TTITLE0=No Buteco Esqueco Tudo
TTITLE1=Brinquedos do Tempo
TTITLE2=Fora de Mim
TTITLE3=Ten Que Ser Uma Gordinha
TTITLE4=Vip No Bar
TTITLE5=Coisas do Coracao
TTITLE6=Topa Tudo
TTITLE7=Ta Pensando o Que
TTITLE8=Casa Dos Meus Sonhos
TTITLE9=Ta Faltando Cachaca
TTITLE10=Tontura da Paixao
TTITLE11=Bate Na Madeira e Isola
TTITLE12=Duvido
TTITLE13=To Nem Ai
TTITLE14=Fantasia
TTITLE15=Estrada do Meu Destino
EXTD=
EXTT0=
EXTT1=
EXTT2=
EXTT3=
EXTT4=
EXTT5=
EXTT6=
EXTT7=
EXTT8=
EXTT9=
EXTT10=
EXTT11=
EXTT12=
EXTT13=
EXTT14=
EXTT15=
PLAYORDER=
